<svg width="40" height="40" viewBox="0 0 40 40" fill="none" xmlns="http://www.w3.org/2000/svg">
<rect width="40" height="40" rx="5" fill="#29CB97"/>
<path fill-rule="evenodd" clip-rule="evenodd" d="M30.551 28.39L28.3127 26.335C28.1314 26.165 27.8963 26.075 27.6563 26.075H15.4555V24.075H27.0343C27.5731 24.075 28.0139 23.63 28.0139 23.075V17H30.551V28.39ZM13.1976 22.335L10.9592 24.39V13H26.0547V22.075H13.8539C13.7314 22.075 13.609 22.1 13.4963 22.145C13.3886 22.19 13.2857 22.25 13.1976 22.335ZM31.5306 15H28.0139V12C28.0139 11.445 27.5731 11 27.0343 11H9.97959C9.44082 11 9 11.445 9 12V26.635C9 27.03 9.22531 27.39 9.58286 27.55C9.7102 27.61 9.84245 27.635 9.97959 27.635C10.2147 27.635 10.4498 27.55 10.6359 27.38L13.4963 24.75V27.075C13.4963 27.63 13.9371 28.075 14.4759 28.075H27.2792L30.8743 31.38C31.0604 31.55 31.2955 31.635 31.5306 31.635C31.6678 31.635 31.8 31.61 31.9273 31.55C32.2849 31.39 32.5102 31.03 32.5102 30.635V16C32.5102 15.445 32.0694 15 31.5306 15Z" fill="white"/>
</svg>
