<svg width="30" height="33" viewBox="0 0 30 33" fill="none" xmlns="http://www.w3.org/2000/svg">
<g clip-path="url(#clip0)">
<path d="M24.2474 31.2946L14.9427 21.2251L5.63802 31.2946C4.34817 32.6903 2.25708 32.6903 0.967222 31.2946C-0.322407 29.8988 -0.322407 27.6359 0.967222 26.24L10.2721 16.1707L0.967222 6.10136C-0.322407 4.7055 -0.322407 2.44257 0.967222 1.04671C2.25708 -0.348903 4.34817 -0.348903 5.63802 1.04671L14.9427 11.1163L24.2474 1.04671C25.5372 -0.348903 27.6283 -0.348903 28.9182 1.04671C30.2078 2.44257 30.2078 4.7055 28.9182 6.10136L19.6133 16.1707L28.9182 26.24C30.2078 27.6359 30.2078 29.8988 28.9182 31.2946C27.6283 32.6903 25.5372 32.6903 24.2474 31.2946Z" fill="#B8C5D3"/>
</g>
<defs>
<clipPath id="clip0">
<rect width="29.8854" height="32.3413" fill="white"/>
</clipPath>
</defs>
</svg>
