<svg width="30" height="30" viewBox="0 0 30 30" fill="none" xmlns="http://www.w3.org/2000/svg">
<path fill-rule="evenodd" clip-rule="evenodd" d="M22.8953 10.9906H11.9389C12.7638 9.94451 13.2634 8.61633 13.2634 7.17062C13.2634 5.72491 12.7638 4.40261 11.9389 3.35065H22.8953C24.975 3.35065 26.6713 5.0667 26.6713 7.17062C26.6713 9.28042 24.975 10.9906 22.8953 10.9906ZM7.18696 10.9672C5.24665 10.9672 3.64328 9.46864 3.45157 7.55865C3.43995 7.42936 3.43414 7.30007 3.43414 7.17078C3.43414 7.04148 3.43995 6.91219 3.45157 6.7829C3.64328 4.87292 5.24665 3.37431 7.18696 3.37431C9.25507 3.37431 10.9398 5.07861 10.9398 7.17078C10.9398 9.26295 9.25507 10.9672 7.18696 10.9672ZM22.8953 1H7.21019C3.84079 1 1.11041 3.76213 1.11041 7.17073C1.11041 10.5793 3.84079 13.3415 7.21019 13.3415H22.8953C26.2647 13.3415 28.9951 10.5793 28.9951 7.17073C28.9951 3.76213 26.2647 1 22.8953 1Z" fill="white"/>
<path d="M11.9389 10.9906L11.5463 10.681L10.9079 11.4906H11.9389V10.9906ZM11.9389 3.35065V2.85065H10.9114L11.5455 3.65918L11.9389 3.35065ZM3.45157 7.55865L2.95355 7.6034L2.95407 7.60858L3.45157 7.55865ZM3.45157 6.7829L2.95404 6.73296L2.95358 6.73815L3.45157 6.7829ZM22.8953 10.4906H11.9389V11.4906H22.8953V10.4906ZM12.3315 11.3002C13.2231 10.1696 13.7634 8.73332 13.7634 7.17062H12.7634C12.7634 8.49935 12.3046 9.71939 11.5463 10.681L12.3315 11.3002ZM13.7634 7.17062C13.7634 5.6072 13.2226 4.1774 12.3324 3.04211L11.5455 3.65918C12.305 4.62782 12.7634 5.84261 12.7634 7.17062H13.7634ZM11.9389 3.85065H22.8953V2.85065H11.9389V3.85065ZM22.8953 3.85065C24.6934 3.85065 26.1713 5.33737 26.1713 7.17062H27.1713C27.1713 4.79602 25.2566 2.85065 22.8953 2.85065V3.85065ZM26.1713 7.17062C26.1713 9.00924 24.6939 10.4906 22.8953 10.4906V11.4906C25.2561 11.4906 27.1713 9.5516 27.1713 7.17062H26.1713ZM7.18696 10.4672C5.51054 10.4672 4.11585 9.1703 3.94907 7.50872L2.95407 7.60858C3.17071 9.76697 4.98275 11.4672 7.18696 11.4672V10.4672ZM3.94956 7.5139C3.93928 7.39943 3.93414 7.28507 3.93414 7.17078H2.93414C2.93414 7.31507 2.94063 7.45929 2.95358 7.6034L3.94956 7.5139ZM3.93414 7.17078C3.93414 7.05648 3.93928 6.94212 3.94956 6.82765L2.95358 6.73815C2.94063 6.88226 2.93414 7.02648 2.93414 7.17078H3.93414ZM3.94907 6.83284C4.11585 5.17125 5.51054 3.87431 7.18696 3.87431V2.87431C4.98275 2.87431 3.17071 4.57458 2.95407 6.73297L3.94907 6.83284ZM7.18696 3.87431C8.9735 3.87431 10.4398 5.34928 10.4398 7.17078H11.4398C11.4398 4.80793 9.53665 2.87431 7.18696 2.87431V3.87431ZM10.4398 7.17078C10.4398 8.99227 8.9735 10.4672 7.18696 10.4672V11.4672C9.53665 11.4672 11.4398 9.53362 11.4398 7.17078H10.4398ZM22.8953 0.5H7.21019V1.5H22.8953V0.5ZM7.21019 0.5C3.55921 0.5 0.610413 3.49146 0.610413 7.17073H1.61041C1.61041 4.03281 4.12237 1.5 7.21019 1.5V0.5ZM0.610413 7.17073C0.610413 10.85 3.55921 13.8415 7.21019 13.8415V12.8415C4.12237 12.8415 1.61041 10.3086 1.61041 7.17073H0.610413ZM7.21019 13.8415H22.8953V12.8415H7.21019V13.8415ZM22.8953 13.8415C26.5463 13.8415 29.4951 10.85 29.4951 7.17073H28.4951C28.4951 10.3086 25.9832 12.8415 22.8953 12.8415V13.8415ZM29.4951 7.17073C29.4951 3.49146 26.5463 0.5 22.8953 0.5V1.5C25.9832 1.5 28.4951 4.03281 28.4951 7.17073H29.4951Z" fill="white"/>
<path fill-rule="evenodd" clip-rule="evenodd" d="M3.43414 23.0381C3.43414 20.9342 5.12465 19.2182 7.2102 19.2182H18.1607C17.3358 20.2701 16.842 21.5924 16.842 23.0381C16.842 24.4839 17.3358 25.812 18.1607 26.8581H7.2102C5.12465 26.8581 3.43414 25.1479 3.43414 23.0381ZM19.1658 23.0383C19.1658 20.9461 20.8505 19.2418 22.9186 19.2418C24.8589 19.2418 26.4565 20.7404 26.6482 22.6504C26.6656 22.7797 26.6714 22.909 26.6714 23.0383C26.6714 23.1676 26.6656 23.2969 26.6482 23.4262C26.4565 25.3362 24.8589 26.8348 22.9186 26.8348C20.8505 26.8348 19.1658 25.1305 19.1658 23.0383ZM1.11041 23.0383C1.11041 26.4469 3.84079 29.209 7.21019 29.209H22.8953C26.2647 29.209 28.9951 26.4469 28.9951 23.0383C28.9951 19.6297 26.2647 16.8676 22.8953 16.8676H7.21019C3.84079 16.8676 1.11041 19.6297 1.11041 23.0383Z" fill="white"/>
<path d="M18.1607 19.2182L18.5542 19.5267L19.1882 18.7182H18.1607V19.2182ZM18.1607 26.8581V27.3581H19.1918L18.5534 26.5485L18.1607 26.8581ZM26.6482 22.6504L26.1507 22.7004L26.1515 22.7088L26.1526 22.7172L26.6482 22.6504ZM26.6482 23.4262L26.1526 23.3594L26.1515 23.3678L26.1507 23.3762L26.6482 23.4262ZM3.93414 23.0381C3.93414 21.2044 5.40673 19.7182 7.2102 19.7182V18.7182C4.84258 18.7182 2.93414 20.6641 2.93414 23.0381H3.93414ZM7.2102 19.7182H18.1607V18.7182H7.2102V19.7182ZM17.7673 18.9096C16.8761 20.0461 16.342 21.4761 16.342 23.0381H17.342C17.342 21.7088 17.7955 20.4942 18.5542 19.5267L17.7673 18.9096ZM16.342 23.0381C16.342 24.5995 16.8757 26.036 17.7681 27.1677L18.5534 26.5485C17.796 25.588 17.342 24.3683 17.342 23.0381H16.342ZM18.1607 26.3581H7.2102V27.3581H18.1607V26.3581ZM7.2102 26.3581C5.40623 26.3581 3.93414 24.8773 3.93414 23.0381H2.93414C2.93414 25.4186 4.84307 27.3581 7.2102 27.3581V26.3581ZM19.6658 23.0383C19.6658 21.2168 21.132 19.7418 22.9186 19.7418V18.7418C20.5689 18.7418 18.6658 20.6755 18.6658 23.0383H19.6658ZM22.9186 19.7418C24.594 19.7418 25.9838 21.0378 26.1507 22.7004L27.1457 22.6005C26.9291 20.4431 25.1238 18.7418 22.9186 18.7418V19.7418ZM26.1526 22.7172C26.1662 22.8177 26.1714 22.9235 26.1714 23.0383H27.1714C27.1714 22.8945 27.165 22.7417 27.1437 22.5836L26.1526 22.7172ZM26.1714 23.0383C26.1714 23.1531 26.1662 23.2589 26.1526 23.3594L27.1437 23.493C27.165 23.3349 27.1714 23.1821 27.1714 23.0383H26.1714ZM26.1507 23.3762C25.9838 25.0388 24.594 26.3348 22.9186 26.3348V27.3348C25.1238 27.3348 26.9291 25.6335 27.1457 23.4761L26.1507 23.3762ZM22.9186 26.3348C21.132 26.3348 19.6658 24.8598 19.6658 23.0383H18.6658C18.6658 25.4011 20.5689 27.3348 22.9186 27.3348V26.3348ZM0.610413 23.0383C0.610413 26.7175 3.55921 29.709 7.21019 29.709V28.709C4.12237 28.709 1.61041 26.1762 1.61041 23.0383H0.610413ZM7.21019 29.709H22.8953V28.709H7.21019V29.709ZM22.8953 29.709C26.5463 29.709 29.4951 26.7175 29.4951 23.0383H28.4951C28.4951 26.1762 25.9832 28.709 22.8953 28.709V29.709ZM29.4951 23.0383C29.4951 19.359 26.5463 16.3676 22.8953 16.3676V17.3676C25.9832 17.3676 28.4951 19.9004 28.4951 23.0383H29.4951ZM22.8953 16.3676H7.21019V17.3676H22.8953V16.3676ZM7.21019 16.3676C3.55921 16.3676 0.610413 19.359 0.610413 23.0383H1.61041C1.61041 19.9004 4.12237 17.3676 7.21019 17.3676V16.3676Z" fill="white"/>
</svg>
