<svg width="27" height="27" viewBox="0 0 27 27" fill="none" xmlns="http://www.w3.org/2000/svg">
<g clip-path="url(#clip0)">
<path d="M24.8581 3.82736C23.4604 2.31145 21.5426 1.47656 19.4575 1.47656C17.899 1.47656 16.4717 1.9693 15.2151 2.94097C14.5811 3.43144 14.0065 4.0315 13.5 4.73188C12.9937 4.03171 12.4189 3.43144 11.7847 2.94097C10.5283 1.9693 9.10101 1.47656 7.54246 1.47656C5.45739 1.47656 3.53938 2.31145 2.14172 3.82736C0.760735 5.32555 0 7.37231 0 9.59086C0 11.8743 0.85096 13.9645 2.67792 16.1691C4.31227 18.141 6.66122 20.1429 9.38136 22.4609C10.3102 23.2526 11.363 24.1499 12.4562 25.1057C12.745 25.3586 13.1156 25.4979 13.5 25.4979C13.8842 25.4979 14.255 25.3586 14.5434 25.1061C15.6366 24.1501 16.69 23.2524 17.6193 22.4603C20.339 20.1427 22.6879 18.141 24.3223 16.1689C26.1492 13.9645 27 11.8743 27 9.59065C27 7.37231 26.2393 5.32555 24.8581 3.82736Z" fill="#E5E9F2"/>
</g>
<defs>
<clipPath id="clip0">
<rect width="27" height="27" fill="white"/>
</clipPath>
</defs>
</svg>
