<svg width="20" height="20" viewBox="0 0 24 24" fill="none" xmlns="http://www.w3.org/2000/svg">
<g clip-path="url(#clip0)">
<path d="M23.5969 11.1348L21.5694 9.28738V3.16162C21.5694 2.77185 21.2534 2.45582 20.8636 2.45582H15.9832C15.5935 2.45582 15.2774 2.7718 15.2774 3.16162V3.55415L12.8289 1.32304C12.3562 0.892305 11.6435 0.892352 11.171 1.32299L0.403024 11.1348C0.0244616 11.4798 -0.100648 12.0114 0.0843209 12.489C0.269336 12.9666 0.719805 13.2752 1.23201 13.2752H2.9518V23.1059C2.9518 23.4956 3.26779 23.8116 3.6576 23.8116H9.55976C9.94953 23.8116 10.2656 23.4957 10.2656 23.1059V17.137H13.7344V23.1059C13.7344 23.4957 14.0503 23.8117 14.4401 23.8117H20.3421C20.7318 23.8117 21.0479 23.4957 21.0478 23.1059V13.2752H22.768C23.2802 13.2752 23.7307 12.9666 23.9157 12.489C24.1006 12.0114 23.9755 11.4798 23.5969 11.1348ZM20.3421 11.8636C19.9523 11.8636 19.6363 12.1796 19.6363 12.5694V22.4001H15.146V16.4312C15.146 16.0414 14.83 15.7254 14.4402 15.7254H9.55976C9.17 15.7254 8.85397 16.0414 8.85397 16.4312V22.4001H4.36335V12.5694C4.36335 12.1797 4.04736 11.8636 3.65755 11.8636H1.69898L12 2.47738L15.508 5.67384C15.7146 5.86209 16.0129 5.9106 16.2685 5.79777C16.5241 5.6848 16.6891 5.43159 16.6891 5.15212V3.86741H20.1579V9.5991C20.1579 9.79771 20.2415 9.98704 20.3883 10.1208L22.301 11.8636H20.3421Z" fill="#B8C5D3" stroke="#B8C5D3" stroke-width="0.5"/>
</g>
<defs>
<clipPath id="clip0">
<rect width="24" height="24" fill="white"/>
</clipPath>
</defs>
</svg>
