<svg width="20" height="20" viewBox="0 0 18 24" fill="none" xmlns="http://www.w3.org/2000/svg">
<path fill-rule="evenodd" clip-rule="evenodd" d="M6.16233 17.6331V1.95967H11.0272V5.88686C11.0272 6.42808 11.4631 6.86645 12.0002 6.86645H15.8921V17.6331H6.16233ZM12.4867 21.5515H2.27044V5.87804H4.21639V18.6127C4.21639 19.154 4.65228 19.5923 5.18936 19.5923H12.4867V21.5515ZM12.9731 3.3453L14.5245 4.90726H12.9731V3.3453ZM17.5529 5.18547L12.6881 0.287509C12.5056 0.103835 12.258 0.000488281 12.0002 0.000488281H5.18936C4.65228 0.000488281 4.21639 0.439345 4.21639 0.98008V3.91886H1.29747C0.760385 3.91886 0.324493 4.35771 0.324493 4.89845V22.5311C0.324493 23.0723 0.760385 23.5107 1.29747 23.5107H13.4596C13.9967 23.5107 14.4326 23.0723 14.4326 22.5311V19.5923H16.865C17.4021 19.5923 17.838 19.154 17.838 18.6127V5.87804C17.838 5.61845 17.7354 5.36914 17.5529 5.18547V5.18547Z" fill="#B8C5D3"/>
<path fill-rule="evenodd" clip-rule="evenodd" d="M8.59477 10.0413H11.0272C11.4305 10.0413 11.7569 9.71266 11.7569 9.30662C11.7569 8.90107 11.4305 8.57193 11.0272 8.57193H8.59477C8.19147 8.57193 7.86504 8.90107 7.86504 9.30662C7.86504 9.71266 8.19147 10.0413 8.59477 10.0413" fill="#B8C5D3"/>
<path fill-rule="evenodd" clip-rule="evenodd" d="M13.4596 11.5107H8.59477C8.19147 11.5107 7.86504 11.8398 7.86504 12.2454C7.86504 12.6514 8.19147 12.9801 8.59477 12.9801H13.4596C13.8629 12.9801 14.1894 12.6514 14.1894 12.2454C14.1894 11.8398 13.8629 11.5107 13.4596 11.5107" fill="#B8C5D3"/>
<path fill-rule="evenodd" clip-rule="evenodd" d="M13.4596 14.4495H8.59477C8.19147 14.4495 7.86504 14.7786 7.86504 15.1842C7.86504 15.5902 8.19147 15.9189 8.59477 15.9189H13.4596C13.8629 15.9189 14.1894 15.5902 14.1894 15.1842C14.1894 14.7786 13.8629 14.4495 13.4596 14.4495" fill="#B8C5D3"/>
</svg>
