<svg width="27" height="25" viewBox="0 0 27 25" fill="none" xmlns="http://www.w3.org/2000/svg">
<path d="M24.8581 2.82736C23.4604 1.31145 21.5426 0.476562 19.4575 0.476562C17.899 0.476562 16.4717 0.969299 15.2151 1.94097C14.5811 2.43144 14.0065 3.0315 13.5 3.73188C12.9937 3.03171 12.4189 2.43144 11.7847 1.94097C10.5283 0.969299 9.10101 0.476562 7.54246 0.476562C5.45739 0.476562 3.53938 1.31145 2.14172 2.82736C0.760735 4.32555 0 6.37231 0 8.59086C0 10.8743 0.85096 12.9645 2.67792 15.1691C4.31227 17.141 6.66122 19.1429 9.38136 21.4609C10.3102 22.2526 11.363 23.1499 12.4562 24.1057C12.745 24.3586 13.1156 24.4979 13.5 24.4979C13.8842 24.4979 14.255 24.3586 14.5434 24.1061C15.6366 23.1501 16.69 22.2524 17.6193 21.4603C20.339 19.1427 22.6879 17.141 24.3223 15.1689C26.1492 12.9645 27 10.8743 27 8.59065C27 6.37231 26.2393 4.32555 24.8581 2.82736Z" fill="#EB5757"/>
</svg>
