<svg width="22" height="22" viewBox="0 0 30 30" fill="none" xmlns="http://www.w3.org/2000/svg">
<path d="M26.19 11.8309L16.249 1.88981C15.2213 0.862077 13.5489 0.862018 12.5211 1.88981C11.5972 2.81366 11.5176 4.22266 12.1999 5.22877L12.1861 5.29797C11.4694 8.88185 9.7245 12.1422 7.14 14.7267L2.5803 19.2864C1.5501 20.3166 1.54993 21.984 2.5803 23.0142L5.06549 25.4994C6.09562 26.5296 7.76308 26.5297 8.79333 25.4994L9.41466 24.8781L13.7638 29.2273C14.794 30.2575 16.4614 30.2576 17.4916 29.2273C18.5194 28.1995 18.5194 26.5272 17.4916 25.4995L15.6277 23.6355L16.249 23.0142C17.2792 21.9841 17.2793 20.3167 16.249 19.2864L15.8268 18.8642C17.9039 17.4099 20.2628 16.3975 22.7819 15.8936L22.852 15.8796C23.8805 16.574 25.2862 16.4624 26.19 15.5586H26.1901C27.2177 14.5309 27.2177 12.8587 26.19 11.8309ZM7.55074 24.2568C7.20738 24.6001 6.65144 24.6002 6.30808 24.2568L3.82289 21.7716C3.47948 21.4281 3.47948 20.8724 3.82289 20.529L8.17201 16.1798L11.8999 19.9076C11.4743 20.3332 7.98673 23.8208 7.55074 24.2568ZM16.249 26.742C16.5915 27.0845 16.5915 27.642 16.249 27.9846C15.9064 28.3271 15.3489 28.3271 15.0064 27.9846L10.6572 23.6354L11.8999 22.3928L16.249 26.742ZM13.1424 21.1502C13.4066 20.8861 13.802 20.4815 14.426 19.9485L15.0064 20.529C15.3498 20.8724 15.3498 21.4281 15.0064 21.7716L14.385 22.3929L13.1424 21.1502ZM13.1798 18.7024L9.37716 14.8998C11.415 12.5468 12.8743 9.76913 13.6551 6.75156L21.328 14.4245C18.3105 15.2052 15.5329 16.6645 13.1798 18.7024ZM24.9472 14.3159C24.6038 14.6593 24.0481 14.6593 23.7047 14.3159L13.7637 4.375C13.4203 4.03152 13.4203 3.47582 13.7637 3.1324C14.1071 2.78899 14.663 2.78899 15.0064 3.1324L24.9472 13.0733C25.2898 13.4159 25.2898 13.9733 24.9472 14.3159Z" fill="#B8C5D3"/>
<path d="M8.79328 19.2863C8.45021 18.9432 7.89381 18.9432 7.55068 19.2863L6.30808 20.5289C5.96495 20.8721 5.96495 21.4284 6.30808 21.7715C6.65115 22.1147 7.20761 22.1147 7.55068 21.7715L8.79328 20.5289C9.13641 20.1858 9.13641 19.6295 8.79328 19.2863Z" fill="#B8C5D3"/>
<path d="M20.2846 0C19.7993 0 19.4059 0.393398 19.4059 0.87867V2.63601C19.4059 3.12128 19.7993 3.51468 20.2846 3.51468C20.7698 3.51468 21.1632 3.12128 21.1632 2.63601V0.87867C21.1632 0.393398 20.7698 0 20.2846 0Z" fill="#B8C5D3"/>
<path d="M27.3138 7.02924H25.5565C25.0712 7.02924 24.6778 7.42263 24.6778 7.90791C24.6778 8.39318 25.0712 8.78658 25.5565 8.78658H27.3138C27.7991 8.78658 28.1925 8.39318 28.1925 7.90791C28.1925 7.42263 27.799 7.02924 27.3138 7.02924Z" fill="#B8C5D3"/>
<path d="M26.1779 2.01464C25.8348 1.67151 25.2784 1.67151 24.9353 2.01464L23.1779 3.77198C22.8348 4.1151 22.8348 4.67145 23.1779 5.01457C23.521 5.3577 24.0774 5.35776 24.4205 5.01457L26.1779 3.25723C26.521 2.91411 26.521 2.35782 26.1779 2.01464Z" fill="#B8C5D3"/>
</svg>
