<svg width="76" height="11" viewBox="0 0 76 11" fill="none" xmlns="http://www.w3.org/2000/svg">
<path d="M6.55172 0L8.09838 4.12358H13.1034L9.05426 6.67209L10.6009 10.7957L6.55172 8.24716L2.50254 10.7957L4.04919 6.67209L0 4.12358H5.00507L6.55172 0Z" fill="#FEE500"/>
<path d="M22.2759 0L23.8225 4.12358H28.8276L24.7784 6.67209L26.3251 10.7957L22.2759 8.24716L18.2267 10.7957L19.7733 6.67209L15.7241 4.12358H20.7292L22.2759 0Z" fill="#FEE500"/>
<path d="M38 0L39.5467 4.12358H44.5517L40.5025 6.67209L42.0492 10.7957L38 8.24716L33.9508 10.7957L35.4975 6.67209L31.4483 4.12358H36.4534L38 0Z" fill="#FEE500"/>
<path d="M53.7241 0L55.2708 4.12358H60.2759L56.2267 6.67209L57.7733 10.7957L53.7241 8.24716L49.675 10.7957L51.2216 6.67209L47.1724 4.12358H52.1775L53.7241 0Z" fill="#FEE500"/>
<path d="M69.4483 0L70.9949 4.12358H76L71.9508 6.67209L73.4975 10.7957L69.4483 8.24716L65.3991 10.7957L66.9458 6.67209L62.8966 4.12358H67.9016L69.4483 0Z" fill="#B8C5D3"/>
</svg>
