<svg width="29" height="29" viewBox="0 0 29 29" fill="none" xmlns="http://www.w3.org/2000/svg">
<g clip-path="url(#clip0)">
<path d="M21.1732 18.7196C22.5681 16.7709 23.4025 14.3772 23.4025 11.7822C23.4025 5.28626 18.2361 0.000976562 11.8863 0.000976562C5.53648 0.000976562 0.370148 5.28626 0.370148 11.7822C0.370148 18.2781 5.53654 23.5634 11.8864 23.5634C14.423 23.5634 16.763 22.7097 18.668 21.2827L26.2125 29.0008L28.7178 26.4378C28.7178 26.4378 21.1732 18.7196 21.1732 18.7196ZM11.8864 19.9384C7.48991 19.9384 3.91362 16.2798 3.91362 11.7822C3.91362 7.28459 7.48991 3.62599 11.8864 3.62599C16.2828 3.62599 19.8591 7.28459 19.8591 11.7822C19.8591 16.2798 16.2827 19.9384 11.8864 19.9384Z" fill="#748AA1"/>
</g>
<defs>
<clipPath id="clip0">
<rect x="0.370148" width="28.3476" height="29" fill="white"/>
</clipPath>
</defs>
</svg>
