<svg width="20" height="20" viewBox="0 0 24 24" fill="none" xmlns="http://www.w3.org/2000/svg">
<path fill-rule="evenodd" clip-rule="evenodd" d="M3.91837 18.5H5.304V15H3.91837V18.5ZM6.28359 20.5H2.93877C2.39755 20.5 1.95918 20.055 1.95918 19.5V14C1.95918 13.45 2.39755 13 2.93877 13H6.28359C6.82433 13 7.26318 13.45 7.26318 14V19.5C7.26318 20.055 6.82433 20.5 6.28359 20.5Z" fill="#B8C5D3"/>
<path fill-rule="evenodd" clip-rule="evenodd" d="M11.062 18.5H12.4477V8.5H11.062V18.5ZM13.4273 20.5H10.0825C9.54172 20.5 9.10286 20.055 9.10286 19.5V7.5C9.10286 6.95 9.54172 6.5 10.0825 6.5H13.4273C13.9685 6.5 14.4069 6.95 14.4069 7.5V19.5C14.4069 20.055 13.9685 20.5 13.4273 20.5Z" fill="#B8C5D3"/>
<path fill-rule="evenodd" clip-rule="evenodd" d="M18.2062 18.5H19.5918V2H18.2062V18.5ZM20.5714 20.5H17.2266C16.6859 20.5 16.247 20.055 16.247 19.5V1C16.247 0.45 16.6859 0 17.2266 0H20.5714C21.1122 0 21.551 0.45 21.551 1V19.5C21.551 20.055 21.1122 20.5 20.5714 20.5Z" fill="#B8C5D3"/>
<path fill-rule="evenodd" clip-rule="evenodd" d="M22.5306 24H0.979592C0.438857 24 0 23.555 0 23C0 22.45 0.438857 22 0.979592 22H22.5306C23.0713 22 23.5102 22.45 23.5102 23C23.5102 23.555 23.0713 24 22.5306 24" fill="#B8C5D3"/>
</svg>
