<svg width="40" height="40" viewBox="0 0 40 40" fill="none" xmlns="http://www.w3.org/2000/svg">
<rect width="40" height="40" rx="5" fill="#EB5757"/>
<path fill-rule="evenodd" clip-rule="evenodd" d="M24.3239 24.2695C24.3239 24.5022 24.1419 24.694 23.9213 24.694H16.2103C15.9858 24.694 15.8077 24.5022 15.8077 24.2695V15.3226C15.8077 15.0899 15.9858 14.8981 16.2103 14.8981H23.9213C24.1419 14.8981 24.3239 15.0899 24.3239 15.3226V24.2695ZM21.951 27.6613C20.6852 28.0613 19.4426 28.0613 18.1768 27.6613L17.809 26.3266H22.3226L21.951 27.6613ZM18.1768 11.9348C19.4426 11.5307 20.6852 11.5307 21.951 11.9348L22.3226 13.2654H17.809L18.1768 11.9348ZM23.9368 13.2695L23.3252 11.0654C23.2555 10.8124 23.0735 10.6124 22.8413 10.5266C20.9987 9.82868 19.129 9.82868 17.2865 10.5266C17.0542 10.6124 16.8761 10.8124 16.8065 11.0654L16.1948 13.2695C15.1265 13.2777 14.2594 14.196 14.2594 15.3226V24.2695C14.2594 25.4001 15.1265 26.3144 16.1948 26.3266L16.8065 28.5307C16.8761 28.7797 17.0542 28.9797 17.2865 29.0695C18.2077 29.4164 19.1368 29.5919 20.0658 29.5919C20.991 29.5919 21.92 29.4164 22.8413 29.0695C23.0735 28.9797 23.2555 28.7797 23.3252 28.5307L23.9368 26.3266C25.0052 26.3144 25.8723 25.4001 25.8723 24.2695V15.3226C25.8723 14.196 25.0052 13.2777 23.9368 13.2695V13.2695Z" fill="white"/>
<path fill-rule="evenodd" clip-rule="evenodd" d="M21.9665 19.1839H20.6465V16.8696C20.6465 16.5349 20.3871 16.2573 20.0658 16.2573C19.7445 16.2573 19.4852 16.5349 19.4852 16.8696V19.7961C19.4852 20.1349 19.7445 20.4083 20.0658 20.4083H21.9665C22.2877 20.4083 22.5471 20.1349 22.5471 19.7961C22.5471 19.4573 22.2877 19.1839 21.9665 19.1839Z" fill="white"/>
</svg>
